<svg width="70mm" height="70mm" version="1.1" viewBox="0 0 70 70" xmlns="http://www.w3.org/2000/svg">
<defs>
<radialGradient id="a" cx="24.144" cy="22.613" r="35" gradientTransform="matrix(1.4745 1.5824 -1.5799 1.4722 18.517 -56.969)" gradientUnits="userSpaceOnUse">
<stop stop-opacity="0" offset="0"/>
<stop stop-opacity=".62304" offset="1"/>
</radialGradient>
<linearGradient id="b" x1="35.094" x2="35.468" y1="50.252" y2="70.378" gradientTransform="translate(1.3287e-6 1.8618e-6)" gradientUnits="userSpaceOnUse">
<stop stop-opacity=".015707" offset="0"/>
<stop stop-opacity=".13089" offset="1"/>
</linearGradient>
</defs>
<g transform="translate(8.7894e-8 .089286)">
<rect x="-8.7894e-8" y="-.089286" width="70" height="70" ry="9.0714" fill="#03acff" stroke-width=".26458"/>
<rect x="1.1042e-6" y="-.089286" width="70" height="70" ry="9.0714" fill="url(#a)" stroke-width=".26458"/>
<g transform="matrix(.84226 0 0 .91794 4.5767 4.604)" stroke-width=".3195" aria-label="Ps">
<path d="m16.687 16.391v16.803h7.608q4.2233 0 6.5297-2.1866 2.3064-2.1865 2.3064-6.2302 0-4.0137-2.3064-6.2002t-6.5297-2.1865zm-6.0505-4.9722h13.658q7.5181 0 11.352 3.4146 3.8639 3.3847 3.8639 9.9443 0 6.6196-3.8639 10.004-3.834 3.3847-11.352 3.3847h-7.608v17.972h-6.0505z"/>
<path d="m61.94 28.684v4.3947q-1.97-1.0103-4.0916-1.5154-2.1216-0.50514-4.3947-0.50514-3.4602 0-5.2029 1.0608-1.7175 1.0608-1.7175 3.1824 0 1.6164 1.2376 2.551 1.2376 0.90925 4.9756 1.7427l1.5912 0.3536q4.9504 1.0608 7.0215 3.0056 2.0963 1.9195 2.0963 5.3797 0 3.9401-3.1319 6.2385-3.1066 2.2984-8.5621 2.2984-2.2731 0-4.7483-0.45463-2.4499-0.42937-5.1777-1.3134v-4.7988q2.5762 1.3386 5.0767 2.0206 2.5004 0.65668 4.9504 0.65668 3.2834 0 5.0514-1.1113 1.768-1.1366 1.768-3.1824 0-1.8943-1.2881-2.9046-1.2629-1.0103-5.5818-1.9448l-1.6164-0.37886q-4.319-0.90925-6.2385-2.7783-1.9195-1.8943-1.9195-5.1777 0-3.9906 2.8288-6.1627t8.0317-2.1721q2.5762 0 4.8494 0.37886 2.2731 0.37886 4.1927 1.1366z"/>
</g>
<rect x="2.3842e-6" y="-.089286" width="70" height="70" ry="9.0714" fill="url(#b)" stroke-width=".26458"/>
</g>
</svg>
