<svg width="70mm" height="70mm" version="1.1" viewBox="0 0 70 70" xmlns="http://www.w3.org/2000/svg">
<defs>
<radialGradient id="a" cx="24.144" cy="22.613" r="35" gradientTransform="matrix(1.4745 1.5824 -1.5799 1.4722 18.517 -56.969)" gradientUnits="userSpaceOnUse">
<stop stop-opacity="0" offset="0"/>
<stop stop-opacity=".62304" offset="1"/>
</radialGradient>
<linearGradient id="b" x1="35.094" x2="35.468" y1="50.252" y2="70.378" gradientUnits="userSpaceOnUse">
<stop stop-opacity=".031414" offset="0"/>
<stop stop-opacity=".21466" offset="1"/>
</linearGradient>
</defs>
<rect x="1.1042e-6" y="-.089286" width="70" height="70" ry="9.0714" fill="url(#b)" stroke-width=".26458"/>
<g transform="translate(8.7894e-8 .089286)">
<rect x="-8.7894e-8" y="-.089286" width="70" height="70" ry="9.0714" fill="#9a9e33" stroke-width=".26458"/>
<rect x="1.1042e-6" y="-.089286" width="70" height="70" ry="9.0714" fill="url(#a)" stroke-width=".26458"/>
<g transform="matrix(.78058 0 0 .84176 6.6627 6.2894)" stroke-width=".3195" aria-label="Sb">
<path d="m33.764 13.971v5.9007q-3.4446-1.6474-6.4997-2.4561-3.0552-0.80872-5.9007-0.80872-4.9422 0-7.6379 1.917-2.6658 1.917-2.6658 5.4514 0 2.9653 1.7672 4.4929 1.7972 1.4976 6.7693 2.4262l3.6542 0.74882q6.7693 1.288 9.9743 4.5528 3.2349 3.2349 3.2349 8.6863 0 6.4997-4.3731 9.8544-4.3431 3.3547-12.76 3.3547-3.175 0-6.7693-0.71887-3.5644-0.71886-7.3983-2.1266v-6.2302q3.6842 2.0667 7.2186 3.1151 3.5344 1.0483 6.949 1.0483 5.1818 0 7.9974-2.0368t2.8156-5.8108q0-3.2948-2.0368-5.1519-2.0068-1.8571-6.6196-2.7856l-3.6842-0.71887q-6.7693-1.3479-9.7945-4.2233-3.0252-2.8755-3.0252-7.9974 0-5.9306 4.1634-9.3453 4.1934-3.4146 11.532-3.4146 3.145 0 6.4099 0.5691t6.6795 1.7073z"/>
<path d="m62.48 43.104q0-5.1272-2.1216-8.0317-2.0963-2.9298-5.7839-2.9298-3.6875 0-5.8091 2.9298-2.0963 2.9046-2.0963 8.0317 0 5.1272 2.0963 8.057 2.1216 2.9046 5.8091 2.9046t5.7839-2.9046q2.1216-2.9298 2.1216-8.057zm-15.811-9.8755q1.4649-2.5257 3.6875-3.738 2.2479-1.2376 5.3545-1.2376 5.1524 0 8.3601 4.0916 3.2329 4.0916 3.2329 10.759t-3.2329 10.759q-3.2076 4.0916-8.3601 4.0916-3.1066 0-5.3545-1.2123-2.2226-1.2376-3.6875-3.7633v4.2432h-4.6726v-39.3h4.6726z"/>
</g>
</g>
</svg>
